<?xml version="1.0" encoding="UTF-8"?>
<svg class="icon" viewBox="0 0 146 185" version="1.1" xmlns="http://www.w3.org/2000/svg" xmlns:xlink="http://www.w3.org/1999/xlink">
    <g id="Page-1" stroke="none" stroke-width="1">
        <g id="Styleguide" transform="translate(-408.000000, -1486.000000)">
            <g id="Page-1-Copy" transform="translate(408.000000, 1486.000000)">
                <polygon id="Fill-1" points="125.663507 108.364487 131.532381 114.24001 75.6739791 170.161014 10.1875804 104.600473 0.562397905 114.23619 70.8614269 184.614737 80.486259 184.614737 145.969874 119.058032 145.969874 109.421661 135.288394 98.7284971"></polygon>
                <polygon id="Fill-3" points="70.8614813 0.160442478 0.514692732 70.5864499 10.1395584 80.2224941 75.6740881 14.6144543 131.532435 70.5354794 75.6740881 126.45585 41.6436399 92.3874174 75.6740881 58.3189307 103.289934 85.9652979 112.914766 76.3295811 80.486041 43.8649189 70.8614813 43.8649189 27.2061793 87.5693953 27.2061793 97.2057124 70.8614813 140.909905 80.486041 140.909905 145.969928 75.3535015 145.969928 65.7168569 80.486041 0.160442478"></polygon>
            </g>
        </g>
    </g>
</svg>
