<svg xmlns="http://www.w3.org/2000/svg" viewBox="0 0 1696.3 306.5" xml:space="preserve" preserveAspectRatio="xMinYMid meet">
<g transform="translate(-23 0)">
	<path fill="#167D86" d="M1214.1,243.5l0.9-10h-21.6v-8.2h15.7v-9.4h-15.7v-7.5h19.9v-10h-33v45.2H1214.1L1214.1,243.5z M1231.9,243.5
		v-47h-3c-1.4,1.3-4.4,2-8.9,2.2v44.8H1231.9L1231.9,243.5z M1270.1,226.4c0-11.7-5.2-17.6-15.7-17.6c-5,0-9,1.3-12,3.9
		c-3.6,3.1-5.3,7.8-5.3,14c0,5.8,1.2,10.1,3.7,12.8c2.9,3.3,7.9,4.9,14.9,4.9c4.1,0,8.3-0.8,12.4-2.3v-8.6c-4,1.3-7.6,1.9-10.8,1.9
		c-1.6,0-3-0.1-4-0.4c-1.8-0.4-2.9-1.5-3.4-3c-0.2-0.7-0.3-1.7-0.4-2.9h20.7V226.4L1270.1,226.4z M1249.4,223.2
		c0.1-1.5,0.3-2.6,0.6-3.4c0.7-1.9,2.1-2.9,4.2-2.9c1.8,0,3,0.7,3.5,2.2c0.4,0.9,0.6,2.3,0.7,4.2H1249.4L1249.4,223.2z M1296.4,210
		l-6.6,17.6l-6.4-17.6H1271l13.5,33.5h8.8l13.2-33.5H1296.4L1296.4,210z M1327.9,243.5h10.1v-21.2c0-4.9-1.3-8.4-3.8-10.5
		c-2.4-2-6.4-3-12-3c-3.9,0-8.2,0.6-12.8,1.9v9c2-0.4,3.5-0.8,4.6-1c2.6-0.5,4.9-0.8,7-0.8c1.9,0,3.3,0.3,4,1
		c0.7,0.7,1.1,1.8,1.1,3.4v1.5c-3.5,0.1-5.9,0.3-7.3,0.4c-5.1,0.5-8.5,1.8-10.3,3.9c-1.3,1.5-1.9,3.6-1.9,6.5c0,3,0.8,5.3,2.3,7
		c1.8,2,4.3,2.9,7.6,2.9c4.4,0,7.7-1.9,10-5.8L1327.9,243.5L1327.9,243.5z M1321.4,236.7c-1.1,0-1.9-0.2-2.5-0.7
		c-0.6-0.5-0.8-1.4-0.8-2.7c0-1.1,0.1-2,0.4-2.5c0.4-0.7,1.1-1.2,2.2-1.4c1-0.2,2.8-0.4,5.4-0.5v5.9
		C1324.7,236.1,1323.1,236.7,1321.4,236.7L1321.4,236.7L1321.4,236.7z M1365.2,234.5c-1.8,0.5-3.2,0.8-4.2,0.8
		c-1.5,0-2.5-0.3-3.1-0.9c-0.5-0.5-0.8-1.6-0.8-3.2v-13h7.6V210h-7.6v-7.6h-8.6l-1,3.8c-0.4,1.6-1.3,2.7-2.5,3.2
		c-0.8,0.4-1.9,0.6-3.3,0.6h-0.5v8.1h4.2v14.6c0,3.8,0.8,6.6,2.4,8.3c1.9,2.1,5.3,3.2,10.1,3.2c3,0,5.5-0.4,7.5-1.2V234.5
		L1365.2,234.5z M1381.3,243.5V209h-2.9c-0.8,0.7-1.9,1.2-3.2,1.5c-1.4,0.3-3.3,0.6-5.8,0.6v32.3H1381.3L1381.3,243.5z M1371,196.8
		c-1.1,1.1-1.6,2.5-1.6,4.1c0,1.7,0.5,3.1,1.6,4.2c1.2,1.2,2.6,1.8,4.4,1.8c1.7,0,3.2-0.6,4.3-1.8c1.1-1.1,1.6-2.5,1.6-4.2
		c0-1.7-0.5-3.1-1.6-4.2c-1.2-1.2-2.6-1.8-4.3-1.8C1373.6,195,1372.1,195.6,1371,196.8L1371,196.8L1371,196.8z M1399.2,243.5v-23.2
		c1.8-1,3.4-1.5,4.9-1.5c2.5,0,3.8,1.3,3.8,3.8v20.9h11.9V220c0-2.7-0.5-4.9-1.5-6.7c-1.5-2.7-4-4.1-7.5-4.1
		c-4.3,0-8.2,2.1-11.6,6.2V209h-2.9c-0.8,0.7-1.9,1.2-3.2,1.5c-1.4,0.3-3.3,0.6-5.8,0.6v32.3H1399.2L1399.2,243.5z M1439.7,231.9
		c4.2,0,7.6-0.9,10.1-2.6c2.9-2,4.4-5.1,4.4-9.2c0-1.2-0.2-2.3-0.5-3.4c0.9-0.2,1.8-0.3,2.8-0.3h1V210h-10.2
		c-2.3-0.8-4.8-1.2-7.6-1.2c-4.8,0-8.5,1.1-11,3.2c-2.5,2.1-3.8,5-3.8,8.6c0,3.6,1.4,6.5,4.2,8.6c-3.2,2.3-4.8,5-4.8,8.1
		c0,2.2,1.1,4,3.3,5.2c-3.5,1.5-5.3,3.7-5.3,6.7c0,5.2,5.7,7.9,17.1,7.9c12.2,0,18.3-4,18.3-11.9c0-6.2-4.1-9.3-12.4-9.3h-9
		c-2.1,0-3.2-0.9-3.2-2.7c0-0.7,0.2-1.3,0.6-1.9C1435.5,231.6,1437.6,231.9,1439.7,231.9L1439.7,231.9L1439.7,231.9z M1438.5,244
		h3.9c1.6,0,2.8,0.2,3.5,0.5c0.7,0.4,1.1,1,1.1,2c0,0.7-0.1,1.3-0.3,1.6c-0.2,0.3-0.6,0.6-1.1,0.8c-1.2,0.5-3.1,0.7-5.9,0.7
		c-2.7,0-4.5-0.3-5.5-0.8c-0.7-0.4-1-1-1-1.8c0-1.1,0.4-2.2,1.2-3.2C1435.3,244,1436.7,244,1438.5,244L1438.5,244L1438.5,244z
		 M1442.3,216.5c0.6,0.6,0.9,1.9,0.9,3.9c0,1.8-0.2,3-0.6,3.8c-0.5,0.9-1.4,1.4-2.9,1.4c-1.4,0-2.4-0.5-3-1.4
		c-0.4-0.7-0.6-2-0.6-3.8c0-1.7,0.2-2.9,0.7-3.6c0.5-0.8,1.5-1.2,2.8-1.2C1440.8,215.6,1441.7,215.9,1442.3,216.5L1442.3,216.5
		L1442.3,216.5z"/>
	<path fill="#167D86" d="M1544.5,243.7l0.9-10H1527v-34.9h-13v44.9H1544.5L1544.5,243.7z M1561.6,243.7v-34.3h-2.8
		c-0.8,0.7-1.8,1.2-3.2,1.5c-1.3,0.3-3.3,0.6-5.8,0.6v32.1H1561.6L1561.6,243.7z M1551.3,197.3c-1.1,1.1-1.6,2.4-1.6,4.1
		c0,1.7,0.5,3.1,1.6,4.2c1.1,1.2,2.6,1.8,4.3,1.8c1.7,0,3.2-0.6,4.3-1.8c1.1-1.1,1.6-2.5,1.6-4.1c0-1.7-0.5-3.1-1.6-4.2
		c-1.1-1.2-2.6-1.8-4.3-1.8C1554,195.6,1552.5,196.2,1551.3,197.3L1551.3,197.3L1551.3,197.3z M1590.1,210.5l-6.5,17.5l-6.4-17.5
		h-12.4l13.4,33.3h8.7l13.1-33.3H1590.1L1590.1,210.5z M1633.2,226.7c0-11.6-5.2-17.5-15.6-17.5c-4.9,0-8.9,1.3-11.9,3.9
		c-3.5,3.1-5.3,7.7-5.3,14c0,5.8,1.2,10,3.7,12.8c2.9,3.2,7.8,4.9,14.8,4.9c4.1,0,8.2-0.8,12.3-2.3V234c-4,1.3-7.6,1.9-10.7,1.9
		c-1.6,0-2.9-0.1-4-0.4c-1.8-0.4-2.9-1.4-3.3-3c-0.2-0.7-0.3-1.7-0.4-2.9h20.5V226.7L1633.2,226.7z M1612.6,223.6
		c0.1-1.5,0.3-2.6,0.6-3.4c0.7-1.9,2-2.9,4.1-2.9c1.8,0,3,0.7,3.5,2.1c0.4,0.9,0.6,2.3,0.7,4.2H1612.6L1612.6,223.6z M1649.1,244.5
		c9.6,0,14.4-3.8,14.4-11.5c0-3.8-1.1-6.5-3.2-8.1c-1.6-1.2-3.9-2.1-6.7-2.7c-3.1-0.7-4.9-1.1-5.4-1.4c-0.7-0.3-1-0.9-1-1.5
		c0-0.7,0.3-1.1,0.9-1.4c0.8-0.4,2.1-0.5,3.8-0.5c2.9,0,6.1,0.6,9.8,1.9v-8.4c-3.7-1-7.1-1.5-10.5-1.5c-9.5,0-14.3,3.7-14.3,11.2
		c0,3.1,0.8,5.5,2.3,7.3c1.4,1.7,4,2.9,7.6,3.7c2.8,0.6,4.4,1,4.8,1.1c0.9,0.4,1.4,1,1.4,1.7c0,0.9-0.4,1.5-1.2,1.8
		c-0.8,0.3-2,0.5-3.6,0.5c-3.4,0-7-0.7-11-2.2v8.3C1640.5,243.9,1644.5,244.5,1649.1,244.5L1649.1,244.5L1649.1,244.5z"/>
	<path fill="#5DB1B9" d="M1201.3,179.1v-5.3h-5v-29.4h-5.9l-9.9,5.5v6.8l5.9-2.9v20h-5.6v5.3H1201.3L1201.3,179.1z M1208.8,144.6
		l-2.5,19.8c2-0.5,4.1-0.7,6.1-0.7c2.8,0,4.7,0.3,5.7,1c0.7,0.5,1,1.3,1,2.4c0,1.1-0.4,2.1-1.1,2.7c-0.8,0.8-2.1,1.4-3.9,2
		c-2.1,0.6-5.2,1.1-9.5,1.5v7c3.5-0.2,6-0.3,7.5-0.5c5.6-0.7,9.7-2.1,12.4-4.2c2.7-2.1,4.1-5.2,4.1-9.3c0-2.9-0.8-5.2-2.4-6.8
		c-1.7-1.7-4.2-2.5-7.7-2.5c-1.4,0-2.7,0.2-3.9,0.5l0.7-5.9h12.3l0.7-7.2H1208.8L1208.8,144.6z M1235.3,175.1
		c2.7,3.2,6.6,4.8,11.7,4.8c5.1,0,9-1.6,11.7-4.8c2.2-2.7,3.4-6.3,3.4-10.9v-4.7c0-4.6-1.1-8.2-3.4-10.9c-2.7-3.2-6.6-4.8-11.7-4.8
		c-5.1,0-9,1.6-11.7,4.8c-2.2,2.7-3.4,6.3-3.4,10.9v4.7C1231.9,168.8,1233.1,172.4,1235.3,175.1L1235.3,175.1L1235.3,175.1z
		 M1250.6,171c-0.7,1.3-1.9,1.9-3.6,1.9c-1.7,0-2.9-0.6-3.6-1.9c-0.7-1.3-1.1-3.1-1.1-5.6v-7c0-2.4,0.3-4.2,1-5.4
		c0.7-1.4,1.9-2.1,3.7-2.1c1.8,0,3,0.7,3.7,2.1c0.6,1.3,1,3.1,1,5.4v7C1251.7,167.9,1251.3,169.8,1250.6,171L1250.6,171L1250.6,171z
		 M1299.5,144.6L1293,158l-7.1-13.4H1275l12.2,22v12.6h10v-12.8l11.2-21.7H1299.5L1299.5,144.6z M1331,166.1c0-9-4-13.4-12-13.4
		c-3.8,0-6.9,1-9.2,3c-2.7,2.4-4.1,5.9-4.1,10.7c0,4.4,0.9,7.7,2.8,9.8c2.2,2.5,6,3.7,11.4,3.7c3.2,0,6.3-0.6,9.5-1.7v-6.5
		c-3.1,1-5.8,1.5-8.2,1.5c-1.2,0-2.3-0.1-3.1-0.3c-1.4-0.3-2.2-1.1-2.6-2.3c-0.2-0.6-0.3-1.3-0.3-2.2h15.8V166.1L1331,166.1z
		 M1315.2,163.6c0.1-1.1,0.2-2,0.5-2.6c0.5-1.5,1.6-2.2,3.2-2.2c1.4,0,2.3,0.5,2.7,1.6c0.3,0.7,0.4,1.8,0.5,3.2H1315.2L1315.2,163.6
		z M1349.5,179.1h7.7V163c0-3.8-1-6.5-2.9-8.1c-1.8-1.5-4.9-2.3-9.2-2.3c-3,0-6.3,0.5-9.8,1.5v6.9c1.5-0.3,2.7-0.6,3.5-0.8
		c2-0.4,3.8-0.6,5.3-0.6c1.5,0,2.5,0.3,3.1,0.8c0.6,0.5,0.8,1.4,0.8,2.6v1.1c-2.7,0.1-4.5,0.2-5.5,0.3c-3.9,0.4-6.5,1.4-7.9,2.9
		c-1,1.1-1.5,2.8-1.5,5c0,2.3,0.6,4,1.8,5.3c1.4,1.5,3.3,2.3,5.8,2.3c3.4,0,5.9-1.5,7.7-4.5L1349.5,179.1L1349.5,179.1z
		 M1344.5,173.9c-0.9,0-1.5-0.2-1.9-0.6c-0.4-0.4-0.6-1.1-0.6-2c0-0.9,0.1-1.5,0.3-1.9c0.3-0.5,0.9-0.9,1.7-1.1
		c0.7-0.2,2.1-0.3,4.1-0.3v4.5C1347,173.5,1345.8,173.9,1344.5,173.9L1344.5,173.9L1344.5,173.9z M1370.8,179.1v-17
		c2.2-0.6,4.9-1,8.1-1.2v-8.1c-1.7,0.2-3.2,0.6-4.5,1.4c-1.2,0.7-2.5,1.9-3.7,3.5v-5h-2.2c-0.6,0.5-1.4,0.9-2.4,1.2
		c-1,0.3-2.5,0.4-4.5,0.5v24.7H1370.8L1370.8,179.1z M1390.8,179.7c7.4,0,11.1-2.9,11.1-8.8c0-2.9-0.8-5-2.5-6.2
		c-1.3-0.9-3-1.6-5.2-2.1c-2.4-0.5-3.8-0.9-4.1-1c-0.5-0.3-0.8-0.7-0.8-1.2c0-0.5,0.2-0.9,0.7-1.1c0.6-0.3,1.6-0.4,2.9-0.4
		c2.2,0,4.7,0.5,7.5,1.5v-6.5c-2.8-0.8-5.5-1.2-8.1-1.2c-7.3,0-11,2.9-11,8.6c0,2.4,0.6,4.3,1.7,5.6c1.1,1.3,3,2.2,5.8,2.8
		c2.1,0.4,3.4,0.7,3.7,0.9c0.7,0.3,1.1,0.7,1.1,1.3c0,0.7-0.3,1.1-1,1.4c-0.6,0.2-1.5,0.3-2.8,0.3c-2.6,0-5.4-0.6-8.5-1.7v6.4
		C1384.2,179.2,1387.3,179.7,1390.8,179.7L1390.8,179.7L1390.8,179.7z"/>
	<g>
		<path fill="#167D86" d="M1460.4,135.1c-17.7-13.8-45.6-9.9-45.6-9.9c0,0.2,2.9,28,20.6,41.8c14.8,11.6,35.6,2.3,35.7,2.2l0,0
			C1471.2,169.3,1475.3,146.8,1460.4,135.1"/>
		<path fill="#49BAE4" d="M1492.4,246c-0.3,0-0.6-0.2-0.7-0.5c-5.9-19.4-9.4-35.2-11.3-49.9c-2.3-18.6-1.8-35.1,1.6-50.5
			c4.9-22,16.9-43.8,35.8-64.7c16.6-18.4,37.1-34.6,57-50.2l0.3-0.2c0.3-0.3,0.8-0.2,1.1,0.1c0.3,0.3,0.2,0.8-0.1,1.1l-0.3,0.2
			c-19.8,15.6-40.3,31.8-56.8,50.1c-18.7,20.8-30.6,42.3-35.4,64c-3.4,15.2-3.9,31.6-1.6,50c1.8,14.6,5.4,30.3,11.2,49.6
			c0.1,0.4-0.1,0.8-0.5,0.9C1492.5,246,1492.4,246,1492.4,246z"/>
		<path fill="#C3152E" d="M1492.4,247.9c-0.3,0-0.6-0.2-0.7-0.6c-8.7-32.2-15.7-66.3-7.5-98.1c5.5-21.4,17.8-42.2,36.8-62.1
			c16.8-17.6,36.6-32.3,55.7-46.5c0.3-0.2,0.8-0.2,1,0.2c0.2,0.3,0.2,0.8-0.2,1c-19.1,14.2-38.9,28.8-55.6,46.3
			c-18.7,19.7-31,40.3-36.4,61.4c-3.7,14.5-4.6,30.5-2.5,48.6c1.9,17.3,6.2,34.3,10,48.7c0.1,0.4-0.1,0.8-0.5,0.9
			C1492.5,247.9,1492.5,247.9,1492.4,247.9z"/>
		<path fill="#E96726" d="M1491.6,246.6c-0.4,0-0.7-0.3-0.8-0.6c-7.5-30.5-13.3-62.8-4.9-92.6c5.6-20,17.8-39.4,36-57.7
			c16.2-16.2,36.8-30.8,55-43.6c0.4-0.3,0.9-0.2,1.1,0.2c0.3,0.4,0.2,0.9-0.2,1.1c-18.1,12.8-38.7,27.3-54.8,43.4
			c-18.1,18.1-30.1,37.2-35.6,57c-3.8,13.6-5,28.6-3.5,45.7c1.4,16.4,5,32.5,8.4,46.1c0.1,0.4-0.2,0.9-0.6,1
			C1491.7,246.6,1491.7,246.6,1491.6,246.6z"/>
		<path fill="#F6C900" d="M1491.7,247.4c-0.4,0-0.8-0.3-0.9-0.7c-6.8-28.6-12-58.8-3.9-86.7c5.4-18.7,16.9-36.8,34.1-53.7
			c15.3-15.1,31.8-26.4,47.6-37.3c2.3-1.6,4.5-3.1,6.7-4.6c0.4-0.3,1-0.2,1.3,0.2c0.3,0.4,0.2,1-0.2,1.3c-2.2,1.5-4.5,3.1-6.7,4.6
			c-15.8,10.9-32.2,22.2-47.4,37.1c-17,16.7-28.3,34.5-33.7,52.9c-3.7,12.7-4.8,26.6-3.6,42.6c1.2,15.3,4.5,30.4,7.5,43.1
			c0.1,0.5-0.2,1-0.7,1.1C1491.9,247.3,1491.8,247.4,1491.7,247.4z"/>
		<path fill="#9F1640" d="M1492.6,248.9c-0.7,0-1.3-0.5-1.5-1.2c-6.4-27.3-11.4-53.9-4-79c4.9-16.6,15.2-32.6,31.4-49
			c12.9-13,32.4-26.4,48.1-37.2c1.2-0.9,2.5-1.7,3.6-2.5c0.7-0.5,1.6-0.3,2.1,0.4c0.5,0.7,0.3,1.6-0.4,2.1c-1.2,0.8-2.4,1.7-3.7,2.5
			c-15.6,10.7-35,24-47.7,36.8c-15.9,16.1-26,31.7-30.7,47.8c-7.2,24.5-2.2,50.6,4.1,77.5c0.2,0.8-0.3,1.6-1.1,1.8
			C1492.9,248.9,1492.7,248.9,1492.6,248.9z"/>
		<path fill="#167D86" d="M1493,249c-0.9,0-1.8-0.6-2-1.6c-2.4-10.4-5-22.7-5.9-35.2c-1-13.2,0-24.8,3.1-35.3c4.5-15.2,13.9-30,28-43.7
			c12.4-12.1,26.9-22.1,40.9-31.7c0.9-0.6,2.2-0.4,2.8,0.5c0.6,0.9,0.4,2.2-0.5,2.8c-13.8,9.5-28.2,19.4-40.4,31.3
			c-13.6,13.3-22.7,27.4-27,42c-6.7,22.9-2,47.3,2.9,68.4c0.3,1.1-0.4,2.2-1.5,2.4C1493.3,248.9,1493.1,249,1493,249z"/>
	</g>
	<path d="M386.5,184c0,0-1.6-0.7-1.6-0.7c-10.3-4.4-10.7-4.6-13.1-6.3c-3.4-2.4-4.5-4.2-4.5-7.3c0-5.4,4.5-8.2,13.5-8.2
		c7.9,0,13.7,1.3,23,5.4l1.4,0.6v-20.7l-0.7-0.3c-8.9-3.2-16.3-4.6-24.8-4.6c-22.9,0-36,11-36,30.1c0,14.4,6.5,22.7,23.3,29.5
		c17.8,7.4,19.5,9.3,19.5,14.7c0,6.3-5.3,9.5-15.8,9.5c-9,0-15.9-1.8-26.1-6.8l-1.5-0.7V239l0.6,0.3c9.5,4.3,17.8,6.1,28.6,6.1
		c25,0,38.8-11,38.8-30.9C411.2,199.4,404.9,191.7,386.5,184L386.5,184z"/>
	<path d="M493.6,221c-9.4,3.5-15.6,4.7-23.6,4.7c-16.5,0-23-8.8-23-31.5c0-23.7,6.3-32.5,23.1-32.5c7.8,0,14.7,1.4,22.8,4.6l1.4,0.6
		v-20.5l-0.7-0.3c-7.7-2.8-15.4-4.1-24.3-4.1c-13.8,0-25.5,3.9-33.9,11.2c-10.5,9.2-15.4,22.2-15.4,41.1c0,16,3.3,27.5,10.5,36
		c8.3,9.8,21.5,15,38,15c9.3,0,18.1-1.9,25.7-5.4l0.6-0.3v-19.2L493.6,221L493.6,221z"/>
	<path d="M570.4,144.3c0,0,0,36.5,0,38.4H535c0-1.9,0-38.4,0-38.4h-25.6v99.1H535c0,0,0-38.9,0-40.9h35.3c0,2,0,40.9,0,40.9h25.6
		v-99.1H570.4L570.4,144.3z"/>
	<path d="M640.5,223.3v-20.8c1.9,0,34,0,34,0v-19.2c0,0-32.1,0-34,0v-19c2,0,43.1,0,43.1,0v-20.1h-68.7v99.1h70.7l1.8-20.1
		C687.5,223.3,642.5,223.3,640.5,223.3L640.5,223.3z"/>
	<path d="M763.9,144.3c0,0,0,48.7,0,54.2c-3.4-4.4-41.2-54.2-41.2-54.2h-21.4v99.1H723c0,0,0-54.4,0-59.9
		c3.4,4.5,45.6,59.9,45.6,59.9h17v-99.1H763.9L763.9,144.3z"/>
	<path d="M852,191c1-1.2,37.4-46.7,37.4-46.7h-26.6c0,0-29.3,38-32.6,42.3c0-5.2,0-42.3,0-42.3h-25.5v99.1h25.5c0,0,0-36.6,0-41.9
		c3.3,4.3,32.1,41.9,32.1,41.9h30.4C892.7,243.4,853,192.2,852,191L852,191z"/>
	<path d="M927.4,223.3v-20.8c1.9,0,34.1,0,34.1,0v-19.2c0,0-32.1,0-34.1,0v-19c2,0,43.1,0,43.1,0v-20.1h-68.7v99.1h70.7l1.8-20.1
		C974.4,223.3,929.4,223.3,927.4,223.3L927.4,223.3z"/>
  <path d="M1013.8,163.4c1.7,0,11.7,0,11.7,0
			c9.9,0,13.1,2.8,13.1,11.5c0,8.7-3.6,11.9-13.1,11.9c0,0-9.9,0-11.7,0V163.4L1013.8,163.4z M1053.5,207.7
			c-2.8-4.6-5.7-7.4-8.9-9.4c13-4.2,18.8-11.6,18.8-24.7c0-19.7-12.2-29.3-37.2-29.3h-38v99.1h25.6c0,0,0-37.2,0-39.1
			c1.2,0,3.2,0,3.2,0c5.8,0,7.8,1.5,12.3,9.1l17.8,30h27.9L1053.5,207.7L1053.5,207.7z"/>
  <g fill="#E30613">
		<path d="M261.3,248.5
			c0,4.1-3,7.3-7,7.3H50.5c-4,0-7-3.3-7-7.3V121.1c0-4.1,3-7.3,7-7.3h203.8c4,0,7,3.2,7,7.3V248.5L261.3,248.5z M254.3,95.7H50.5
			c-14,0-25.6,11.1-25.6,25.4v127.4c0,14.3,11.6,25.7,25.6,25.7h203.8c14,0,25.6-11.4,25.6-25.7V121.1
			C279.9,106.8,268.3,95.7,254.3,95.7L254.3,95.7z"/>
    <path d="M121.5,186.9c0-23.5-2.4-41.9-27.8-41.9H88v79.5h10C112.8,224.5,121.5,212.6,121.5,186.9L121.5,186.9z
       M102.8,243.4H59.9V126.5h42.9c30.2,0,46.9,18.9,46.9,57.9C149.8,218.2,138.5,243.1,102.8,243.4L102.8,243.4z"/>
    <path d="M201.4,224.5h-11.5v-30h12.3c14.6,0,18.1,8.5,18.1,15C220.3,224.5,205.8,224.5,201.4,224.5L201.4,224.5z
       M189.9,144.6h8.8c12.6,0,17.6,4.4,17.6,14.1c0,7.7-5.5,14.1-15.3,14.1h-11.1V144.6L189.9,144.6z M223.9,182.3
      c8.3-2.2,20.4-11.6,20.4-27.2c0-2.4-0.5-28.5-33.4-28.5h-48.9v116.8h41.3c10.9,0,45,0,45-32.9C248.4,202.3,245.1,186.9,223.9,182.3
      L223.9,182.3z"/>
  </g>
  <g>
	  <path d="M1123.9,124.7h8.1v131.7h-8.1V124.7z"/>
  </g>
</g>
</svg>
