<svg id="SvgjsSvg1059" width="360" height="275" xmlns="http://www.w3.org/2000/svg" version="1.1" xmlns:xlink="http://www.w3.org/1999/xlink" xmlns:svgjs="http://svgjs.com/svgjs"><defs id="SvgjsDefs1060"><svg width="58px" height="58px" xmlns="http://www.w3.org/2000/svg" xmlns:xlink="http://www.w3.org/1999/xlink" version="1.1" x="0px" y="0px" viewBox="0 0 100 100" enable-background="new 0 0 100 100" id="a1496349019860"><g><g><path old_fill="#000000" d="M49.409,72.189c-0.617,0-1.234-0.182-1.766-0.545c-2.436-1.672-14.744-10.473-17.983-19.698    c-1.66-4.733-1.237-9.235,1.19-12.68c2.251-3.161,6.005-5.042,10.049-5.042c3.137,0,6.089,1.081,8.531,3.086    c2.446-2.006,5.442-3.123,8.523-3.123c4.034,0,7.789,1.887,10.04,5.047c2.438,3.45,2.863,7.961,1.199,12.714    c-3.335,9.525-16.537,18.689-18.031,19.703C50.631,72.012,50.021,72.189,49.409,72.189z M40.898,40.467    c-2.029,0-3.882,0.901-4.956,2.409c-1.225,1.737-1.367,4.229-0.394,7.002c1.909,5.438,8.955,11.717,13.866,15.36    c4.739-3.504,11.966-9.873,13.886-15.352c0.978-2.792,0.835-5.292-0.398-7.038c-1.076-1.511-2.93-2.417-4.95-2.417    c-2.106,0-4.179,1.027-5.688,2.82l-0.454,0.539c-0.595,0.701-1.466,1.106-2.384,1.106c-0.005,0-0.008,0-0.013,0    c-0.923-0.003-1.797-0.416-2.388-1.125l-0.442-0.532C45.056,41.432,43.084,40.467,40.898,40.467z"></path></g><g><path old_fill="#000000" d="M22.825,68.381c-0.798,0-1.598-0.307-2.207-0.916L8.844,55.689c-1.219-1.219-1.219-3.195,0-4.413    l11.774-11.774c1.219-1.22,3.196-1.22,4.414,0c1.22,1.218,1.22,3.195,0,4.413l-9.567,9.569l9.567,9.568    c1.219,1.217,1.219,3.195,0,4.412C24.423,68.074,23.624,68.381,22.825,68.381z"></path></g><g><path old_fill="#000000" d="M76.029,68.381c-0.798,0-1.598-0.307-2.207-0.916c-1.218-1.219-1.218-3.195,0-4.412l9.568-9.568    l-9.567-9.569c-1.218-1.218-1.218-3.195,0-4.414c1.22-1.218,3.195-1.219,4.414,0.001l11.773,11.774c1.22,1.218,1.22,3.194,0,4.413    L78.236,67.465C77.627,68.074,76.827,68.381,76.029,68.381z"></path></g></g></svg><!--?xml version="1.0"?-->
<svg width="766.30097px" height="285.71px" id="t1496349019860"><path fill="#222222" d="M40.05614,49.45467c-1.45707,0-2.65701,1.19994-2.65701,2.74272l0,17.74197c0,1.45707,1.19994,2.65701,2.65701,2.65701l10.2852,0l1.11423-0.51426l0,14.22786l-1.19994-0.59997l-10.19949,0c-9.34239,0-16.2849-3.94266-16.2849-15.68493l0-17.9991c0-9.17097,6.94251-15.77064,16.02777-15.77064l9.59952,0l1.19994-0.59997l0,14.31357l-1.11423-0.51426l-9.4281,0z M93.7106,85.62429l-1.02852,0l-8.571-5.39973c-3.59982,5.05689-9.17097,5.74257-11.74227,5.74257c-9.59952,0-14.82783-7.37106-14.82783-16.19919c0-8.91384,5.57115-16.54203,17.65626-16.54203l4.88547,0c0-3.17127-1.37136-3.77124-3.77124-3.77124l-12.8565,0l-1.02852,0.68568l0-14.22786l1.19994,0.51426l13.79931,0c9.51381,0,16.2849,4.71405,16.2849,16.11348l0,33.08406z M80.59697,69.68223l0-5.05689l-5.48544,0c-2.65701,0-4.88547,1.54278-4.88547,3.94266c0,2.22846,1.54278,5.22831,6.94251,3.4284z M137.50841,85.79571l-0.68568,0l-6.17112-3.4284c-3.08556,2.14275-5.65686,3.4284-10.97088,3.4284c-10.11378,0-17.48484-4.37121-17.48484-16.54203l0-32.14125l-0.8571-0.77139l15.34209,0l-0.8571,0.68568l0,32.74122c0,3.85695,7.97103,3.85695,7.97103,0l0-32.65551l-0.77139-0.77139l15.25638,0l-0.77139,0.77139l0,48.68328z M158.16452,53.48304c4.37121,1.7142,17.74197,5.91399,17.05629,17.48484c-0.68568,11.91369-8.82813,15.85635-17.65626,15.17067c-3.59982-0.25713-8.99955-0.94281-13.97073-3.59982l4.11408-13.02792c3.25698,1.7142,9.51381,3.17127,13.19934,3.17127c0.59997-1.02852,0.77139-2.22846,0.51426-3.51411c-4.45692-2.05704-17.74197-6.34254-16.62774-18.68478c0.68568-7.11393,4.19979-10.71375,7.19964-12.34224c7.62819-4.54263,18.59907-0.59997,21.51321,0.68568l-5.31402,12.68508c-1.79991-0.68568-6.8568-1.88562-8.99955-1.88562c-0.8571-0.08571-2.14275,2.99985-1.02852,3.85695z M216.19019,85.62429l-1.02852,0l-8.571-5.39973c-3.59982,5.05689-9.17097,5.74257-11.74227,5.74257c-9.59952,0-14.82783-7.37106-14.82783-16.19919c0-8.91384,5.57115-16.54203,17.65626-16.54203l4.88547,0c0-3.17127-1.37136-3.77124-3.77124-3.77124l-12.8565,0l-1.02852,0.68568l0-14.22786l1.19994,0.51426l13.79931,0c9.51381,0,16.2849,4.71405,16.2849,16.11348l0,33.08406z M203.07656,69.68223l0-5.05689l-5.48544,0c-2.65701,0-4.88547,1.54278-4.88547,3.94266c0,2.22846,1.54278,5.22831,6.94251,3.4284z M224.8469,36.25533l1.02852,0l5.91399,3.94266c2.74272-2.65701,6.51396-3.94266,10.37091-3.94266c4.54263,0,8.14245,1.45707,11.22801,4.45692c3.34269-3.08556,7.7139-4.54263,11.9994-4.54263c9.25668,0,16.62774,5.57115,16.62774,15.94206l0,32.82693l0.77139,0.77139l-15.34209,0l0.77139-0.77139l0-32.99835c0-3.68553-7.88532-3.68553-7.88532,0l0,32.99835l0.77139,0.77139l-15.34209,0l0.77139-0.77139l0-32.99835c0-3.59982-7.88532-3.68553-7.88532,0l0,32.99835l0.77139,0.77139l-15.34209,0l0.77139-0.77139l0-48.68328z"></path></svg>
</defs><use id="SvgjsUse1061" xlink:href="#t1496349019860" fill="#222222" x="26.720947265625" y="92.80930137634277"></use><use id="SvgjsUse1062" xlink:href="#a1496349019860" fill="#222222" x="151" y="74.53800106048584"></use></svg>